<svg height="415pt" viewBox="-8 0 415 415.62112" width="415pt" xmlns="http://www.w3.org/2000/svg"><path d="m268.453125 170.667969c0 69.75-56.542969 126.292969-126.292969 126.292969s-126.292968-56.542969-126.292968-126.292969 56.542968-126.292969 126.292968-126.292969 126.292969 56.542969 126.292969 126.292969zm0 0" fill="#e7d1c4"/><path d="m111.441406 133.121094c0-49.015625 39.730469-88.746094 88.746094-88.746094 49.011719 0 88.746094 39.730469 88.746094 88.746094zm0 0" fill="#b5a19c"/><path d="m288.933594 139.945312h-177.492188c-3.769531 0-6.828125-3.050781-6.828125-6.824218 0-52.703125 42.875-95.574219 95.574219-95.574219s95.574219 42.871094 95.574219 95.574219c0 3.773437-3.054688 6.824218-6.828125 6.824218zm-170.382813-13.652343h163.277344c-3.480469-41.988281-38.769531-75.09375-81.640625-75.09375s-78.15625 33.109375-81.636719 75.09375zm0 0" fill="#4c241d"/><path d="m227.492188 256-27.613282 27.308594-27-27.308594v-204.800781l27-34.132813 27.613282 34.132813zm0 0" fill="#ffce56"/><path d="m199.878906 290.132812c-.011718 0-.027344 0-.039062 0-1.804688-.011718-3.539063-.738281-4.8125-2.027343l-27-27.304688c-1.265625-1.28125-1.972656-3.003906-1.972656-4.800781v-204.800781c0-1.539063.519531-3.023438 1.472656-4.230469l27-34.132812c1.289062-1.628907 3.238281-2.582032 5.3125-2.597657 1.949218-.109375 4.039062.921875 5.347656 2.535157l27.613281 34.132812c.988281 1.214844 1.519531 2.734375 1.519531 4.292969v204.800781c0 1.824219-.726562 3.574219-2.027343 4.855469l-27.613281 27.304687c-1.277344 1.265625-3 1.972656-4.800782 1.972656zm-20.171875-36.9375 20.226563 20.457032 20.734375-20.507813v-199.53125l-20.726563-25.621093-20.234375 25.582031zm47.785157 2.804688h.066406zm0 0" fill="#4c241d"/><path d="m350.375 34.132812c0-9.5625-1.644531-18.722656-4.542969-27.304687-11.398437 33.71875-43.226562 58.023437-80.792969 58.023437-2.972656 0-5.890624-.203124-8.785156-.5 15.832032 12.921876 27.082032 31.203126 31.058594 52.078126 36.308594-9.808594 63.0625-42.886719 63.0625-82.296876zm0 0" fill="#edebdc"/><path d="m287.3125 123.253906c-1.265625 0-2.523438-.351562-3.617188-1.039062-1.613281-1.007813-2.734374-2.640625-3.089843-4.507813-3.589844-18.839843-13.769531-35.90625-28.664063-48.066406-2.339844-1.898437-3.148437-5.113281-1.996094-7.898437 1.15625-2.78125 4.027344-4.414063 6.996094-4.179688 2.664063.269531 5.359375.464844 8.097656.464844 33.660157 0 63.535157-21.453125 74.328126-53.386719.941406-2.773437 3.539062-4.640625 6.46875-4.640625 2.925781 0 5.53125 1.867188 6.464843 4.640625 3.253907 9.628906 4.898438 19.546875 4.898438 29.492187 0 41.5-28.003907 78.054688-68.105469 88.886719-.585938.152344-1.1875.234375-1.78125.234375zm-14.253906-51.921875c8.949218 10.554688 15.527344 22.976563 19.222656 36.347657 30.511719-11.273438 51.265625-40.578126 51.265625-73.546876 0-2.011718-.078125-4.019531-.242187-6.027343-15.15625 24.46875-41.097657 40.695312-70.246094 43.226562zm0 0" fill="#4c241d"/><path d="m50 34.132812c0-9.5625 1.640625-18.722656 4.542969-27.304687 11.398437 33.71875 43.226562 58.023437 80.789062 58.023437 2.976563 0 5.894531-.203124 8.789063-.5-15.832032 12.921876-27.082032 31.203126-31.058594 52.078126-36.308594-9.808594-63.0625-42.886719-63.0625-82.296876zm0 0" fill="#edebdc"/><path d="m113.058594 123.253906c-.597656 0-1.191406-.082031-1.777344-.234375-40.101562-10.832031-68.109375-47.386719-68.109375-88.886719 0-9.945312 1.652344-19.867187 4.90625-29.492187.9375-2.773437 3.539063-4.640625 6.464844-4.640625s5.53125 1.867188 6.46875 4.640625c10.792969 31.933594 40.660156 53.386719 74.320312 53.386719 2.742188 0 5.433594-.195313 8.097657-.464844 2.996093-.269531 5.84375 1.398438 6.996093 4.179688 1.15625 2.785156.34375 6-1.988281 7.898437-14.898438 12.160156-25.082031 29.226563-28.671875 48.066406-.355469 1.867188-1.472656 3.5-3.082031 4.507813-1.097656.6875-2.351563 1.039062-3.625 1.039062zm-55.992188-95.148437c-.160156 2.007812-.238281 4.015625-.238281 6.027343 0 32.964844 20.753906 62.273438 51.265625 73.546876 3.691406-13.378907 10.273438-25.785157 19.21875-36.347657-29.144531-2.53125-55.085938-18.757812-70.246094-43.226562zm0 0" fill="#4c241d"/><path d="m334.570312 209.054688c5.375 3.585937 7.269532 10.542968 4.488282 16.371093-14.015625 29.367188-64.117188 115.1875-195.101563 181.648438-6.933593 3.519531-15.417969 1.433593-20.082031-4.789063-6.152344-8.203125-3.226562-20.046875 6.097656-24.324218 38.386719-17.609376 127.894532-66.925782 186.421875-164.933594 3.753907-6.285156 12.085938-8.03125 18.175781-3.972656zm0 0" fill="#bf7e68"/><path d="m136.789062 415.621094c-7.015624 0-13.890624-3.253906-18.378906-9.238282-4.191406-5.59375-5.613281-12.695312-3.894531-19.476562 1.710937-6.730469 6.304687-12.257812 12.609375-15.152344 35.832031-16.433594 125.4375-65.144531 183.410156-162.226562 2.753906-4.613282 7.171875-7.804688 12.445313-9 5.269531-1.179688 10.875-.160156 15.375 2.847656 8.261719 5.507812 11.144531 16.011719 6.867187 24.992188-15.960937 33.429687-67.214844 118.347656-198.179687 184.792968-3.269531 1.660156-6.78125 2.460938-10.253907 2.460938zm190.578126-201.925782c-.460938 0-.917969.042969-1.378907.152344-1.589843.359375-2.914062 1.3125-3.734375 2.679688-59.933594 100.367187-152.445312 150.664062-189.4375 167.640625-2.527344 1.160156-4.375 3.386719-5.066406 6.097656-.699219 2.761719-.125 5.648437 1.585938 7.929687 2.722656 3.625 7.558593 4.796876 11.527343 2.792969 127.230469-64.554687 176.675781-146.332031 192.035157-178.5 1.328124-2.789062.433593-6.046875-2.117188-7.753906-1.035156-.6875-2.207031-1.039063-3.414062-1.039063zm0 0" fill="#4c241d"/><path d="m104.613281 126.292969h191.148438v47.785156h-191.148438zm0 0" fill="#6b4f5b"/><g fill="#4c241d"><path d="m295.761719 180.90625h-191.148438c-3.769531 0-6.828125-3.054688-6.828125-6.828125v-47.785156c0-3.773438 3.058594-6.828125 6.828125-6.828125h191.148438c3.773437 0 6.824219 3.054687 6.824219 6.828125v47.785156c0 3.773437-3.050782 6.828125-6.824219 6.828125zm-184.320313-13.652344h177.492188v-34.132812h-177.492188zm0 0"/><path d="m200.1875 160.425781c-3.773438 0-6.828125-3.050781-6.828125-6.824219v-6.828124c0-3.773438 3.054687-6.828126 6.828125-6.828126s6.828125 3.054688 6.828125 6.828126v6.828124c0 3.773438-3.054687 6.824219-6.828125 6.824219zm0 0"/><path d="m203.601562 157.011719h-6.828124c-3.773438 0-6.828126-3.050781-6.828126-6.824219s3.054688-6.828125 6.828126-6.828125h6.828124c3.773438 0 6.824219 3.054687 6.824219 6.828125s-3.050781 6.824219-6.824219 6.824219zm0 0"/><path d="m247.972656 160.425781c-3.773437 0-6.824218-3.050781-6.824218-6.824219v-6.828124c0-3.773438 3.050781-6.828126 6.824218-6.828126 3.773438 0 6.828125 3.054688 6.828125 6.828126v6.828124c0 3.773438-3.054687 6.824219-6.828125 6.824219zm0 0"/><path d="m251.386719 157.011719h-6.828125c-3.773438 0-6.824219-3.050781-6.824219-6.824219s3.050781-6.828125 6.824219-6.828125h6.828125c3.773437 0 6.828125 3.054687 6.828125 6.828125s-3.054688 6.824219-6.828125 6.824219zm0 0"/><path d="m145.574219 160.425781c-3.769531 0-6.828125-3.050781-6.828125-6.824219v-6.828124c0-3.773438 3.058594-6.828126 6.828125-6.828126s6.828125 3.054688 6.828125 6.828126v6.828124c0 3.773438-3.058594 6.824219-6.828125 6.824219zm0 0"/><path d="m148.988281 157.011719h-6.828125c-3.769531 0-6.828125-3.050781-6.828125-6.824219s3.058594-6.828125 6.828125-6.828125h6.828125c3.769531 0 6.824219 3.054687 6.824219 6.828125s-3.054688 6.824219-6.824219 6.824219zm0 0"/><path d="m207.015625 98.988281c0 3.769531-3.058594 6.824219-6.828125 6.824219s-6.828125-3.054688-6.828125-6.824219c0-3.773437 3.058594-6.828125 6.828125-6.828125s6.828125 3.054688 6.828125 6.828125zm0 0"/><path d="m207.015625 64.851562c0 3.773438-3.058594 6.828126-6.828125 6.828126s-6.828125-3.054688-6.828125-6.828126c0-3.769531 3.058594-6.824218 6.828125-6.824218s6.828125 3.054687 6.828125 6.824218zm0 0"/><path d="m207.015625 235.519531c0 3.769531-3.058594 6.828125-6.828125 6.828125s-6.828125-3.058594-6.828125-6.828125 3.058594-6.828125 6.828125-6.828125 6.828125 3.058594 6.828125 6.828125zm0 0"/><path d="m207.015625 201.386719c0 3.769531-3.058594 6.828125-6.828125 6.828125s-6.828125-3.058594-6.828125-6.828125 3.058594-6.828125 6.828125-6.828125 6.828125 3.058594 6.828125 6.828125zm0 0"/></g><path d="m368.257812 262.246094c0-7.621094-2.210937-14.714844-5.992187-20.71875-13.902344 3.089844-28.210937-.066406-38.152344-10.007813-6.273437-6.269531-9.875-14.289062-10.921875-22.839843l-.007812-.003907c-.402344-.484375-.714844-1.019531-1.164063-1.46875-9.375-9.371093-25.589843-8.351562-36.222656 2.28125-10.632813 10.628907-11.652344 26.847657-2.28125 36.222657.449219.449218.984375.761718 1.464844 1.164062l.007812.007812c8.550781 1.046876 16.570313 4.652344 22.839844 10.917969 9.6875 9.6875 12.96875 23.53125 10.277344 37.085938 6.105469 3.972656 13.363281 6.320312 21.1875 6.320312 21.519531 0 38.964843-17.441406 38.964843-38.960937zm0 0" fill="#b5a19c"/><path d="m329.292969 308.035156c-8.839844 0-17.453125-2.566406-24.914063-7.429687-2.339844-1.519531-3.511718-4.3125-2.964844-7.046875 2.367188-11.9375-.699218-23.210938-8.414062-30.929688-4.957031-4.960937-11.480469-8.070312-18.847656-8.976562-1.304688-.160156-2.53125-.691406-3.542969-1.53125-.828125-.613282-1.394531-1.058594-1.921875-1.585938-12.019531-12.023437-11-32.601562 2.28125-45.875 13.285156-13.28125 33.859375-14.300781 45.878906-2.28125.527344.527344.980469 1.101563 1.414063 1.695313l-.019531.019531c.9375 1.027344 1.550781 2.339844 1.726562 3.757812.90625 7.359376 4.007812 13.875 8.972656 18.839844 7.933594 7.929688 19.554688 10.910156 31.847656 8.167969 2.804688-.613281 5.71875.59375 7.257813 3.03125 4.601563 7.316406 7.035156 15.734375 7.035156 24.355469 0 25.246094-20.539062 45.789062-45.789062 45.789062zm-13.730469-16.777344c4.285156 2.054688 8.964844 3.121094 13.730469 3.121094 17.722656 0 32.136719-14.414062 32.136719-32.132812 0-4.558594-.976563-9.039063-2.835938-13.167969-14.933594 1.828125-29.320312-2.746094-39.304688-12.730469-6.652343-6.648437-10.972656-15.160156-12.566406-24.714844-6.78125-6.238281-18.332031-5.085937-26.101562 2.679688-7.765625 7.765625-8.925782 19.3125-2.738282 26.085938 9.585938 1.59375 18.113282 5.914062 24.773438 12.574218 9.882812 9.886719 14.464844 23.628906 12.90625 38.285156zm0 0" fill="#4c241d"/><path d="m382.949219 245.496094.097656-.09375-.339844-.179688c-.441406-.488281-.84375-1.003906-1.316406-1.476562-2.421875-2.421875-5.15625-4.347656-8.011719-6.019532-3.609375 1.761719-7.351562 2.964844-11.113281 3.800782 3.78125 6.007812 5.992187 13.097656 5.992187 20.722656 0 21.515625-17.445312 38.960938-38.964843 38.960938-7.824219 0-15.082031-2.347657-21.191407-6.320313-.816406 4.128906-2.140624 8.230469-4.070312 12.179687 1.675781 2.859376 3.597656 5.589844 6.023438 8.015626.46875.46875.988281.871093 1.476562 1.316406l.175781.339844.097657-.097657c17.570312 15.609375 46.296874 13.28125 65.359374-5.785156 19.066407-19.066406 21.394532-47.789063 5.785157-65.363281zm0 0" fill="#edebdc"/><path d="m339.792969 333.753906c-11.511719 0-22.679688-3.691406-31.613281-11.21875-.710938-.425781-1.351563-.972656-1.867188-1.628906-.472656-.410156-.785156-.699219-1.085938-1-2.578124-2.578125-4.890624-5.644531-7.085937-9.390625-1.152344-1.972656-1.246094-4.386719-.238281-6.441406 1.59375-3.257813 2.773437-6.796875 3.511718-10.519531.441407-2.21875 1.953126-4.082032 4.046876-4.960938 2.074218-.863281 4.472656-.664062 6.371093.574219 5.234375 3.414062 11.273438 5.214843 17.460938 5.214843 17.71875 0 32.132812-14.414062 32.132812-32.132812 0-6.039062-1.707031-11.953125-4.941406-17.085938-1.179687-1.875-1.371094-4.214843-.519531-6.261718.851562-2.046875 2.648437-3.554688 4.8125-4.03125 3.597656-.808594 6.738281-1.882813 9.605468-3.273438 2.0625-1.007812 4.46875-.914062 6.449219.246094 3.757813 2.199219 6.824219 4.519531 9.386719 7.085938.433594.433593.839844.894531 1.230469 1.359374l-.003907.007813c.3125.300781.605469.621094.867188.964844 17.824219 20.414062 15.085938 53.015625-6.320312 74.421875-11.933594 11.9375-27.359376 18.070312-42.199219 18.070312zm-23.617188-22.359375c.058594.042969.109375.09375.164063.140625 14.988281 13.324219 39.585937 10.890625 56-5.507812 16.40625-16.40625 18.828125-41.007813 5.5-56-.03125-.039063-.074219-.085938-.105469-.128906-.039063-.042969-.078125-.085938-.117187-.125-.035157-.035157-.496094-.566407-.523438-.601563l-.53125-.597656c-1.09375-1.09375-2.324219-2.121094-3.765625-3.136719-.265625.109375-.527344.214844-.800781.316406 2.03125 5.238282 3.085937 10.820313 3.085937 16.492188 0 25.246094-20.539062 45.785156-45.785156 45.785156-5.8125 0-11.527344-1.109375-16.882813-3.25-.210937.570312-.433593 1.144531-.660156 1.710938 1.007813 1.433593 2.035156 2.660156 3.128906 3.761718l1.234376 1.085938c.015624.019531.035156.035156.058593.054687zm0 0" fill="#4c241d"/><path d="m65.804688 209.054688c-5.375 3.585937-7.269532 10.542968-4.488282 16.371093 14.015625 29.367188 64.117188 115.1875 195.101563 181.648438 6.933593 3.519531 15.417969 1.433593 20.082031-4.789063 6.152344-8.203125 3.222656-20.046875-6.097656-24.324218-38.386719-17.609376-127.894532-66.925782-186.425782-164.933594-3.746093-6.285156-12.082031-8.03125-18.171874-3.972656zm0 0" fill="#bf7e68"/><path d="m263.589844 415.621094c-3.476563 0-6.988282-.800782-10.261719-2.460938-130.988281-66.457031-182.222656-151.371094-198.171875-184.792968-4.28125-8.972657-1.394531-19.476563 6.859375-24.992188h.003906c4.5-3 10.101563-4.019531 15.378907-2.847656 5.273437 1.195312 9.695312 4.386718 12.445312 9 57.984375 97.085937 147.578125 145.792968 183.414062 162.226562 6.296876 2.894532 10.890626 8.421875 12.605469 15.152344 1.71875 6.78125.300781 13.882812-3.898437 19.476562-4.492188 5.984376-11.363282 9.238282-18.375 9.238282zm-193.996094-200.886719c-2.554688 1.707031-3.445312 4.964844-2.117188 7.753906 15.347657 32.160157 64.78125 113.933594 192.03125 178.5 3.972657 2.015625 8.808594.820313 11.535157-2.800781 1.707031-2.273438 2.28125-5.160156 1.582031-7.921875-.6875-2.71875-2.535156-4.941406-5.0625-6.097656-36.988281-16.964844-129.496094-67.265625-189.441406-167.640625-.816406-1.367188-2.140625-2.320313-3.730469-2.679688-1.667969-.382812-3.375-.054687-4.796875.886719zm0 0" fill="#4c241d"/><path d="m32.117188 262.246094c0-7.621094 2.210937-14.714844 5.992187-20.71875 13.898437 3.089844 28.210937-.066406 38.152344-10.007813 6.269531-6.269531 9.875-14.289062 10.921875-22.839843l.007812-.003907c.402344-.484375.714844-1.019531 1.164063-1.46875 9.375-9.371093 25.589843-8.351562 36.222656 2.28125 10.632813 10.628907 11.652344 26.847657 2.28125 36.222657-.453125.449218-.984375.761718-1.46875 1.164062l-.003906.007812c-8.550781 1.046876-16.570313 4.652344-22.839844 10.917969-9.6875 9.6875-12.96875 23.53125-10.277344 37.085938-6.105469 3.972656-13.363281 6.320312-21.191406 6.320312-21.515625 0-38.960937-17.441406-38.960937-38.960937zm0 0" fill="#b5a19c"/><path d="m71.082031 308.035156c-25.25 0-45.789062-20.539062-45.789062-45.785156 0-8.621094 2.433593-17.042969 7.042969-24.359375 1.535156-2.441406 4.453124-3.621094 7.253906-3.027344 12.3125 2.746094 23.917968-.234375 31.847656-8.167969 4.964844-4.972656 8.070312-11.484374 8.96875-18.839843.164062-1.316407.703125-2.558594 1.558594-3.574219.605468-.816406 1.054687-1.390625 1.582031-1.917969 11.996094-12.007812 32.585937-10.980469 45.859375 2.300781 13.273438 13.273438 14.296875 33.851563 2.28125 45.871094-.53125.535156-1.101562.980469-1.683594 1.40625-.941406.695313-2.617187 1.570313-3.773437 1.707032-7.363281.90625-13.886719 4.015624-18.863281 8.980468-7.710938 7.714844-10.769532 18.988282-8.398438 30.933594.542969 2.734375-.632812 5.527344-2.972656 7.046875-7.46875 4.859375-16.082032 7.425781-24.914063 7.425781zm-29.300781-58.953125c-1.863281 4.125-2.835938 8.613281-2.835938 13.167969 0 17.71875 14.414063 32.132812 32.136719 32.132812 4.761719 0 9.441407-1.074218 13.734375-3.121093-1.558594-14.660157 3.019532-28.402344 12.902344-38.289063 6.664062-6.652344 15.171875-10.972656 24.710938-12.558594 6.242187-6.820312 5.074218-18.347656-2.675782-26.097656-3.964844-3.96875-9-6.328125-14.183594-6.65625-4.605468-.3125-8.8125 1.097656-11.902343 3.914063-1.585938 9.574219-5.910157 18.105469-12.570313 24.773437-9.996094 9.984375-24.398437 14.574219-39.316406 12.734375zm0 0" fill="#4c241d"/><path d="m17.421875 245.496094-.09375-.09375.335937-.179688c.445313-.488281.847657-1.003906 1.320313-1.476562 2.421875-2.421875 5.15625-4.347656 8.011719-6.019532 3.609375 1.761719 7.347656 2.964844 11.113281 3.800782-3.78125 6.007812-5.992187 13.097656-5.992187 20.722656 0 21.515625 17.445312 38.960938 38.964843 38.960938 7.824219 0 15.082031-2.347657 21.1875-6.320313.820313 4.128906 2.144531 8.230469 4.070313 12.179687-1.671875 2.859376-3.597656 5.589844-6.019532 8.015626-.472656.46875-.988281.871093-1.476562 1.316406l-.175781.339844-.097657-.097657c-17.574218 15.609375-46.296874 13.28125-65.359374-5.785156-19.066407-19.066406-21.394532-47.789063-5.789063-65.363281zm0 0" fill="#edebdc"/><path d="m60.582031 333.753906c-14.84375 0-30.265625-6.132812-42.203125-18.074218-21.132812-21.125-24.070312-53.179688-6.996094-73.632813.453126-.800781 1.0625-1.507813 1.796876-2.066406.398437-.453125.671874-.753907.957031-1.046875 2.578125-2.582032 5.652343-4.898438 9.410156-7.101563 1.96875-1.152343 4.386719-1.257812 6.441406-.238281 2.867188 1.398438 6.007813 2.464844 9.605469 3.273438 2.167969.480468 3.964844 1.984374 4.816406 4.03125.855469 2.054687.65625 4.386718-.527344 6.269531-3.234374 5.132812-4.941406 11.039062-4.941406 17.078125 0 17.71875 14.417969 32.132812 32.136719 32.132812 6.183594 0 12.222656-1.808594 17.464844-5.214844 1.898437-1.230468 4.292969-1.4375 6.375-.570312 2.089843.878906 3.601562 2.738281 4.046875 4.957031.738281 3.726563 1.917968 7.269531 3.503906 10.519531 1.003906 2.054688.914062 4.46875-.238281 6.441407-2.199219 3.753906-4.519531 6.832031-7.097657 9.398437-.394531.402344-.839843.789063-1.285156 1.175782l-.019531-.019532c-.3125.34375-.65625.660156-1.03125.9375-9.019531 7.890625-20.4375 11.75-32.214844 11.75zm-37.941406-83.859375c-.035156.046875-.074219.09375-.113281.132813-13.320313 14.992187-10.898438 39.59375 5.507812 56 16.414063 16.410156 41.011719 18.832031 56.003906 5.507812.046876-.042968.09375-.082031.140626-.121094.023437-.019531.042968-.039062.0625-.058593l.722656-.632813c.007812-.007812.523437-.46875.53125-.472656 1.09375-1.097656 2.117187-2.320312 3.125-3.753906-.230469-.566406-.449219-1.140625-.65625-1.714844-5.359375 2.140625-11.074219 3.253906-16.886719 3.253906-25.25 0-45.789063-20.539062-45.789063-45.785156 0-5.675781 1.054688-11.253906 3.085938-16.496094-.265625-.105468-.527344-.207031-.792969-.3125-1.445312 1.011719-2.675781 2.03125-3.769531 3.132813l-1.101562 1.246093c-.019532.027344-.042969.046876-.070313.074219zm0 0" fill="#4c241d"/></svg>